<?xml version="1.0" standalone="no"?>
<!DOCTYPE svg PUBLIC "-//W3C//DTD SVG 1.1//EN" "http://www.w3.org/Graphics/SVG/1.1/DTD/svg11.dtd">
<svg xmlns="http://www.w3.org/2000/svg">
<metadata>This SVG font generated by Fontastic.me</metadata>
<defs>
<font id="hp-fortify-icons" horiz-adv-x="512">
  <font-face font-family="hp-fortify-icons" font-weight="500" font-stretch="normal" units-per-em="512" panose-1="2 0 6 3 0 0 0 0 0 0" ascent="480" descent="-32" bbox="82 53 436 395" underline-thickness="50" underline-position="-100" unicode-range="U+E000-E037"/>
    <missing-glyph/>
    <glyph glyph-name="glyph0" unicode="&#57344;" d="M382 244c1 -7 2 -13 2 -20s-1 -13 -2 -20l43 -42c3 -3 1 -9 -1 -12l-23 -36c-2 -3 -7 -8 -11 -7l-55 16c-10 -8 -21 -14 -33 -18l-13 -46c-1 -3 -8 -6 -13 -6h-45c-5 0 -12 3 -13 6l-12 47c-10 4 -19 10 -29 17l-54 -16c-4 -1 -10 4 -12 7l-23 36c-2 3 -4 9 -1 12l43 42 c-1 7 -2 13 -2 20s1 13 2 20l-43 42c-3 3 -1 9 1 12l23 36c2 3 7 8 12 7l54 -16c10 8 21 14 33 18l13 46c1 3 8 6 13 6h45c5 0 12 -3 13 -6l12 -47c10 -4 20 -10 29 -17l55 16c4 1 9 -4 11 -7l23 -36c2 -3 4 -9 1 -12zM301 269c-12 13 -27 19 -45 19c-35 0 -64 -29 -64 -64 s29 -64 64 -64s64 29 64 64c0 18 -7 32 -19 45z"/>
    <glyph glyph-name="glyph1" unicode="&#57345;" d="M256 395c94 0 171 -77 171 -171s-77 -171 -171 -171s-171 77 -171 171s77 171 171 171zM281 120v35c0 3 -3 6 -6 6h-35c-3 0 -6 -3 -6 -6v-35c0 -3 3 -6 6 -6h35c3 0 6 3 6 6zM295 213c14 8 33 19 33 47c0 34 -36 58 -67 58c-30 0 -52 -13 -68 -39c-2 -3 -2 -5 1 -7 l24 -19c1 -1 3 -1 4 -1c2 0 4 1 5 2c9 11 11 15 15 17c3 2 9 5 16 5c12 0 23 -8 23 -16c0 -9 -5 -14 -16 -19c-13 -6 -31 -21 -31 -39v-7c0 -3 3 -8 6 -8h35c3 0 6 4 6 7c0 4 5 14 14 19z"/>
    <glyph glyph-name="glyph2" unicode="&#57346;" d="M107 75c-12 0 -22 9 -22 21c0 4 1 8 3 11l147 245c4 8 3 7 7 14c3 5 7 7 14 7c13 0 17 -11 21 -21l147 -245c2 -3 3 -7 3 -11c0 -12 -10 -21 -22 -21h-298zM256 181c11 0 21 11 21 22v64c0 12 -9 21 -21 21s-21 -9 -21 -21v-64c0 -11 10 -22 21 -22zM271 154 c-4 4 -9 6 -15 6c-12 0 -21 -9 -21 -21s9 -22 21 -22s21 10 21 22c0 6 -2 11 -6 15z"/>
    <glyph glyph-name="glyph3" unicode="&#57347;" d="M417 63c-13 -13 -32 -13 -45 0l-57 56c-23 -15 -50 -24 -80 -24c-83 0 -150 67 -150 150s67 150 150 150s150 -67 150 -150c0 -30 -9 -57 -24 -80l56 -57c13 -13 13 -32 0 -45zM235 352c-59 0 -107 -48 -107 -107s48 -107 107 -107s107 48 107 107s-48 107 -107 107z"/>
    <glyph glyph-name="glyph4" unicode="&#57348;" d="M256 53c-94 0 -171 77 -171 171s77 171 171 171s171 -77 171 -171s-77 -171 -171 -171zM367 234l-101 101c-3 3 -6 4 -10 4s-7 -1 -10 -4l-101 -101c-3 -3 -4 -6 -4 -10s1 -7 4 -10l21 -20c3 -3 6 -4 10 -4s7 1 10 4l42 42v-112c0 -8 6 -14 14 -14h28c8 0 14 6 14 14v112 l42 -42c3 -3 6 -4 10 -4s7 1 10 4l21 20c3 3 4 6 4 10s-1 7 -4 10z"/>
    <glyph glyph-name="glyph5" unicode="&#57349;" d="M300 230l-25 26l126 126l26 -25zM249 230l13 13l26 -26l-13 -13h-26v26zM300 180l38 38v-165h-253v239h103v103h150v-26l-113 -113v-76h75zM85 320l75 75v-75h-75z"/>
    <glyph glyph-name="glyph6" unicode="&#57350;" d="M256 395c94 0 171 -77 171 -171s-77 -171 -171 -171s-171 77 -171 171s77 171 171 171zM230 312v-26c0 -5 3 -9 8 -9h36c5 0 8 4 8 9v26c0 5 -3 9 -8 9h-36c-5 0 -8 -4 -8 -9zM300 136v17c0 5 -4 9 -9 9h-9v80c0 5 -3 8 -8 8h-53c-5 0 -9 -3 -9 -8v-18c0 -5 4 -9 9 -9h9 v-53h-9c-5 0 -9 -4 -9 -9v-17c0 -5 4 -9 9 -9h70c5 0 9 4 9 9z"/>
    <glyph glyph-name="glyph7" unicode="&#57351;" d="M341 395c47 0 86 -39 86 -86v-170c0 -47 -39 -86 -86 -86h-170c-47 0 -86 39 -86 86v170c0 47 39 86 86 86h170zM359 260c2 2 4 7 4 10s-2 7 -4 9l-19 19c-2 2 -6 4 -9 4s-7 -2 -9 -4l-91 -91l-41 41c-2 3 -6 4 -9 4s-7 -2 -9 -4l-19 -19c-2 -2 -4 -6 -4 -9s2 -8 4 -10 c23 -23 46 -45 69 -68c2 -2 6 -4 9 -4s7 2 9 4z"/>
    <glyph glyph-name="glyph8" unicode="&#57352;" d="M427 201c0 -13 -11 -24 -24 -24h-100v-100c0 -13 -11 -24 -24 -24h-46c-13 0 -24 11 -24 24v100h-100c-13 0 -24 11 -24 24v46c0 13 11 24 24 24h100v100c0 13 11 24 24 24h46c13 0 24 -11 24 -24v-100h100c13 0 24 -11 24 -24v-46z"/>
    <glyph glyph-name="glyph9" unicode="&#57353;" d="M405 75c0 -12 -9 -22 -21 -22h-256c-11 0 -21 11 -21 22v277c0 12 9 22 21 22h43v-43c0 -12 9 -21 21 -21h128c12 0 21 9 21 21v43h43c12 0 21 -10 21 -22v-277zM320 352c0 -12 -9 -21 -21 -21h-86c-11 0 -21 10 -21 21c0 12 9 21 21 21c0 12 10 22 22 22h42 c12 0 22 -10 22 -22c12 0 21 -9 21 -21z"/>
    <glyph glyph-name="glyph10" unicode="&#57354;" d="M427 210c0 -8 -7 -14 -15 -14h-31c-11 -48 -49 -86 -97 -97v-31c0 -8 -6 -15 -14 -15h-28c-8 0 -14 7 -14 15v31c-48 11 -86 49 -97 97h-31c-8 0 -15 6 -15 14v28c0 8 7 14 15 14h31c11 48 49 86 97 97v31c0 8 6 15 14 15h28c8 0 14 -7 14 -15v-31c48 -11 86 -49 97 -97 h31c8 0 15 -6 15 -14v-28zM327 196c-8 0 -14 6 -14 14v28c0 8 6 14 14 14h24c-10 32 -35 57 -67 67v-24c0 -8 -6 -14 -14 -14h-28c-8 0 -14 6 -14 14v24c-32 -10 -57 -35 -67 -67h24c8 0 14 -6 14 -14v-28c0 -8 -6 -14 -14 -14h-24c10 -32 35 -57 67 -67v24c0 8 6 14 14 14 h28c8 0 14 -6 14 -14v-24c32 10 57 35 67 67h-24z"/>
    <glyph glyph-name="glyph11" unicode="&#57355;" d="M298 127l48 -48c-26 -16 -57 -26 -90 -26c-94 0 -171 77 -171 171s77 171 171 171s171 -77 171 -171c0 -32 -10 -62 -25 -88l-47 48c-9 9 -14 22 -13 35c2 24 -7 48 -25 66c-24 24 -58 30 -88 20l54 -54c1 -21 -31 -53 -52 -52l-54 54c-10 -30 -4 -64 20 -88 c18 -18 42 -27 66 -25c13 1 26 -4 35 -13z"/>
    <glyph glyph-name="glyph12" unicode="&#57356;" d="M399 303c4 -4 6 -9 6 -15h-106v107c6 0 10 -2 14 -6zM107 373c0 12 9 21 21 21h150v-85h-1v-42l128 -1v-191c0 -12 -9 -22 -21 -22h-256c-12 0 -21 10 -21 22v298zM363 96c6 0 10 5 10 11v21c0 6 -4 11 -10 11h-203c-6 0 -10 -5 -10 -11v-21c0 -6 4 -11 10 -11h203z M373 213c0 6 -4 11 -10 11h-203c-6 0 -10 -5 -10 -11v-21c0 -6 4 -11 10 -11h203c6 0 10 5 10 11v21z"/>
    <glyph glyph-name="glyph13" unicode="&#57357;" d="M85 342c0 8 6 14 14 14h314c8 0 14 -6 14 -14v-33c0 -8 -6 -14 -14 -14h-314c-8 0 -14 6 -14 14v33zM260 208c0 -8 -6 -14 -14 -14h-147c-8 0 -14 6 -14 14v32c0 8 6 14 14 14h147c8 0 14 -6 14 -14v-32zM322 106c0 -7 -5 -14 -13 -14h-209c-8 0 -14 7 -14 14v34 c0 7 6 13 14 13h209c8 0 13 -6 13 -13v-34z"/>
    <glyph glyph-name="glyph14" unicode="&#57358;" d="M414 78c0 -13 -11 -25 -24 -25h-268c-13 0 -24 12 -24 25v244c0 13 11 24 24 24h24v18c0 17 14 31 31 31h12c17 0 30 -14 30 -31v-18h74v18c0 17 13 31 30 31h12c17 0 31 -14 31 -31v-18h24c13 0 24 -11 24 -24v-244zM177 218v55h-55v-55h55zM177 145v61h-55v-61h55z M177 78v55h-55v-55h55zM195 364c0 3 -3 6 -6 6h-12c-3 0 -6 -3 -6 -6v-55c0 -3 3 -6 6 -6h12c3 0 6 3 6 6v55zM250 218v55h-61v-55h61zM250 145v61h-61v-61h61zM250 78v55h-61v-55h61zM323 218v55h-61v-55h61zM323 145v61h-61v-61h61zM323 78v55h-61v-55h61zM341 364 c0 3 -3 6 -6 6h-12c-3 0 -6 -3 -6 -6v-55c0 -3 3 -6 6 -6h12c3 0 6 3 6 6v55zM390 218v55h-55v-55h55zM390 145v61h-55v-61h55zM390 78v55h-55v-55h55z"/>
    <glyph glyph-name="glyph15" unicode="&#57359;" d="M367 241l-188 -188h-94v94l188 188zM188 103l-53 53l-21 -21v-24h29v-29h24zM280 296c-1 0 -3 0 -4 -1l-122 -122c-1 -1 -2 -3 -2 -4c0 -3 2 -5 5 -5c1 0 3 0 4 1l122 122c1 1 2 3 2 4c0 3 -2 5 -5 5zM418 293l-37 -38l-94 94l38 37c5 5 12 9 20 9s15 -4 20 -9l53 -53 c5 -5 9 -12 9 -20s-4 -15 -9 -20z"/>
    <glyph glyph-name="glyph16" unicode="&#57360;" d="M246 191c0 -48 -40 -80 -81 -80c-44 0 -80 36 -80 80c0 10 2 19 5 28c7 24 42 93 48 106c11 22 39 12 28 -11c-3 -6 -17 -39 -21 -46c7 2 13 3 20 3c29 0 47 -12 57 -22h68c10 10 28 22 57 22c7 0 13 -1 20 -3c-4 7 -18 40 -21 46c-11 23 17 33 28 11 c6 -13 41 -82 48 -106c3 -9 5 -18 5 -28c0 -44 -36 -80 -80 -80c-41 0 -81 32 -81 80c0 5 2 15 2 15h-24s2 -10 2 -15zM165 143c24 0 48 19 48 48s-24 48 -48 48s-47 -19 -47 -48c0 -26 21 -48 47 -48zM299 191c0 -29 24 -48 48 -48c26 0 47 22 47 48c0 29 -23 48 -47 48 s-48 -19 -48 -48z"/>
    <glyph glyph-name="glyph17" unicode="&#57361;" d="M225 190c0 -6 5 -10 11 -10c3 0 6 1 8 3l95 95c20 20 21 41 0 61s-42 20 -62 0l-117 -115c-30 -30 -30 -77 0 -107s77 -29 107 1c2 2 100 98 112 111c4 4 10 6 16 6c12 0 21 -10 21 -22c0 -6 -2 -11 -6 -15c-89 -88 -99 -100 -111 -110c-25 -24 -65 -43 -114 -30 c-40 11 -74 44 -85 84c-13 49 7 89 31 113l115 114c17 17 38 26 62 26c47 0 87 -39 87 -86c0 -24 -9 -44 -26 -61l-95 -94c-10 -10 -23 -15 -38 -15c-29 0 -54 23 -54 51c0 14 5 26 15 36c1 1 75 76 76 77c4 4 9 7 15 7c12 0 21 -10 21 -22c0 -6 -2 -11 -6 -15 c-8 -7 -45 -45 -75 -75c-2 -2 -3 -5 -3 -8z"/>
    <glyph glyph-name="glyph18" unicode="&#57362;" d="M256 367c84 0 144 -70 144 -144c0 -17 -3 -33 -8 -48l-23 22c2 8 3 17 3 26c0 60 -48 116 -116 116v-29l-58 42l58 43v-28zM237 108l4 28l51 -51l-65 -32l5 28c-24 4 -47 14 -67 30c-40 33 -59 84 -51 135c3 20 10 36 20 54l21 -20c-27 -51 -17 -111 27 -147 c16 -13 35 -22 55 -25zM260 152c12 1 24 -4 32 -12c13 -13 26 -27 39 -40c20 12 36 29 48 48c-13 13 -27 26 -40 39c-8 8 -13 20 -12 32c1 20 -6 40 -21 55c-20 20 -49 26 -74 17l46 -46c1 -18 -26 -45 -44 -44l-46 46c-9 -25 -3 -54 17 -74c15 -15 35 -22 55 -21z"/>
    <glyph glyph-name="glyph19" unicode="&#57363;" d="M256 126c-9 0 -19 1 -28 2c-25 -22 -54 -38 -87 -46c-9 -3 -28 -9 -31 3v0c-1 5 2 8 5 11c12 14 26 25 35 57c-39 22 -65 56 -65 95c0 67 77 122 171 122s171 -55 171 -122s-77 -122 -171 -122z"/>
    <glyph glyph-name="glyph20" unicode="&#57364;" d="M172 331c11 0 20 -10 20 -21c0 -6 -2 -10 -6 -14l-55 -72l55 -72c4 -4 6 -8 6 -14c0 -11 -9 -20 -20 -20c-6 0 -11 1 -15 5l-66 87c-4 4 -5 8 -5 14s2 10 6 14l65 87c4 4 9 6 15 6zM256 75c-2 -4 -2 -12 -5 -15c-4 -4 -8 -7 -16 -7c-10 0 -24 14 -21 25l42 295 c4 14 14 22 32 22c10 0 13 -14 10 -25zM421 210l-66 -87c-4 -4 -9 -5 -15 -5c-11 0 -20 9 -20 20c0 6 2 10 6 14l55 72l-55 72c-4 4 -6 8 -6 14c0 11 9 21 20 21c6 0 11 -2 15 -6l66 -87c4 -4 6 -8 6 -14s-2 -10 -6 -14z"/>
    <glyph glyph-name="glyph21" unicode="&#57365;" d="M416 186h-49c0 -27 -5 -48 -14 -63l45 -46c9 -10 1 -24 -10 -24c-3 0 -6 1 -9 4l-44 43s-28 -26 -65 -26v195h-28v-195c-39 0 -68 29 -68 29l-40 -45c-3 -3 -6 -5 -10 -5c-11 0 -19 14 -11 24l44 49c-8 15 -12 35 -12 60h-49c-8 0 -14 6 -14 14s6 14 14 14h49v64l-38 37 c-5 5 -5 15 0 20s14 5 19 0l38 -38h184l38 38c5 5 14 5 19 0s5 -15 0 -20l-38 -37v-64h49c8 0 14 -6 14 -14s-6 -14 -14 -14zM186 325c0 39 31 70 70 70s70 -31 70 -70h-140z"/>
    <glyph glyph-name="glyph22" unicode="&#57366;" d="M427 117c0 -35 -29 -64 -64 -64h-214c-35 0 -64 29 -64 64v214c0 35 29 64 64 64h214c35 0 64 -29 64 -64v-214zM356 203c8 0 14 7 14 14v107c0 8 -6 14 -14 14h-107c-11 0 -20 -15 -10 -24l32 -32l-119 -119c-6 -6 -6 -14 0 -20l23 -23c6 -6 14 -6 20 0l119 119l32 -32 c3 -3 6 -4 10 -4z"/>
    <glyph glyph-name="glyph23" unicode="&#57367;" d="M256 395c94 0 171 -77 171 -171s-77 -171 -171 -171s-171 77 -171 171s77 171 171 171zM356 193v57h-200v-57h200z"/>
    <glyph glyph-name="glyph24" unicode="&#57368;" d="M422 174l-82 -82c-3 -3 -7 -4 -11 -4s-9 1 -12 4l-9 10c-3 3 -5 7 -5 11s2 9 5 12l37 36h-89c-9 0 -15 8 -15 17v16c0 9 6 16 15 16h89l-37 37c-3 3 -5 7 -5 11s2 9 5 12l9 9c3 3 8 5 12 5s8 -2 11 -5l82 -82c3 -3 5 -7 5 -11s-2 -9 -5 -12zM85 262c0 4 2 9 5 12l82 82 c3 3 7 4 11 4s9 -1 12 -4l9 -10c3 -3 5 -7 5 -11s-2 -8 -5 -11l-37 -37h89c9 0 15 -8 15 -17v-16c0 -9 -6 -16 -15 -16h-89l37 -37c3 -3 5 -7 5 -11s-2 -9 -5 -12l-9 -9c-3 -3 -8 -5 -12 -5s-8 2 -11 5l-82 82c-3 3 -5 7 -5 11z"/>
    <glyph glyph-name="glyph25" unicode="&#57369;" d="M394 307c18 0 33 -14 33 -32v-163c0 -18 -15 -32 -33 -32h-276c-18 0 -33 14 -33 32v163c0 18 15 32 33 32h57l25 45c6 10 16 16 28 16h56c12 0 22 -6 28 -16l25 -45h57zM256 106c49 0 89 41 89 90s-40 89 -89 89s-89 -40 -89 -89s40 -90 89 -90zM256 261 c36 0 65 -29 65 -65s-29 -65 -65 -65s-65 29 -65 65s29 65 65 65z"/>
    <glyph glyph-name="glyph26" unicode="&#57370;" d="M414 293l-126 -62c-9 -4 -20 -7 -32 -7s-23 3 -32 7l-126 62c-9 4 -13 10 -13 16s4 12 13 16l126 63c9 4 20 6 32 6s23 -2 32 -6l126 -63c9 -4 13 -10 13 -16s-4 -12 -13 -16zM414 208l-126 -63c-9 -4 -20 -6 -32 -6s-23 3 -32 7l-126 62c-9 4 -13 10 -13 16s4 12 13 16 l12 6l114 -58c9 -4 20 -6 32 -6s23 2 32 6l114 58l12 -6c9 -4 13 -10 13 -16s-4 -12 -13 -16zM98 155l12 5l114 -57c9 -4 20 -7 32 -7s23 3 32 7l114 57l12 -5c9 -4 13 -10 13 -16s-4 -12 -13 -16l-126 -63c-9 -4 -20 -6 -32 -6s-23 2 -32 6l-126 63c-9 4 -13 10 -13 16 s4 12 13 16z"/>
    <glyph glyph-name="glyph27" unicode="&#57371;" d="M356 295c0 -55 -44 -100 -99 -100s-100 45 -100 100s45 99 100 99s99 -44 99 -99zM339 191c60 -23 88 -101 88 -137h-342c0 36 28 114 89 137c23 -19 52 -29 83 -29c30 0 59 11 82 29z"/>
    <glyph glyph-name="glyph28" unicode="&#57373;" d="M423 215l-68 -68c-2 -2 -6 -4 -10 -4s-6 2 -9 4l-8 8c-2 3 -4 5 -4 9s2 6 4 9l31 31h-74c-8 0 -12 6 -12 13v14c0 7 4 13 12 13h74l-31 31c-2 2 -4 5 -4 9s2 7 4 9l8 8c3 3 5 4 9 4s8 -1 10 -4l68 -68c3 -2 4 -5 4 -9s-1 -6 -4 -9zM85 224c0 4 1 7 4 9l68 68c2 3 5 4 9 4 s7 -1 10 -4l8 -8c2 -2 4 -5 4 -9s-2 -7 -4 -9l-31 -31h74c7 0 12 -6 12 -13v-14c0 -7 -4 -13 -12 -13h-74l31 -31c2 -3 4 -5 4 -9s-2 -7 -4 -10l-8 -7c-3 -2 -6 -4 -10 -4s-7 2 -9 4l-68 67c-3 3 -4 6 -4 10z"/>
    <glyph glyph-name="glyph29" unicode="&#57374;" d="M149 256h-64v65h64v-65zM427 256h-214v65h214v-65zM149 127h-64v65h64v-65zM427 127h-214v65h214v-65z"/>
    <glyph glyph-name="glyph30" unicode="&#57375;" d="M256 395c94 0 171 -77 171 -171s-77 -171 -171 -171s-171 77 -171 171s77 171 171 171zM309 233c0 24 -1 48 -2 71h11v13c0 7 -4 8 -11 9c-12 2 -31 4 -45 4c-36 0 -58 -10 -66 -38c-3 -10 -4 -21 -4 -36c0 -41 11 -71 51 -71c17 0 26 5 37 12v-18c0 -22 -13 -26 -38 -26 c-13 0 -28 1 -40 3v-12c0 -15 33 -15 48 -15c38 0 59 16 59 52v52zM251 207c-26 0 -30 22 -30 49c0 25 3 44 22 49c5 1 11 2 18 2c6 0 13 0 19 -1v-89c-8 -5 -16 -10 -29 -10z"/>
    <glyph glyph-name="glyph31" unicode="&#57376;" d="M391 209l33 -33c4 -4 4 -11 0 -15l-16 -15c-4 -4 -11 -4 -15 0l-33 32l-32 -32c-1 -1 -1 -2 -2 -2l32 -47l-40 -27l-97 143l-96 -143l-40 27l112 166v115h49v-115l56 -83l28 29l-33 32c-4 4 -4 12 0 16l16 15c4 4 11 4 15 0l32 -33l33 33c4 4 11 4 15 0l16 -15 c4 -4 4 -12 0 -16z"/>
    <glyph glyph-name="glyph32" unicode="&#57377;" d="M152 80l-39 26l52 78l39 -26zM352 197h47v-127h-140v47h54l-91 136v125h46v-111l84 -124v54z"/>
    <glyph glyph-name="glyph33" unicode="&#57379;" d="M392 224l32 -32c4 -4 4 -11 0 -15l-15 -14c-4 -4 -11 -4 -15 0l-32 32l-32 -32c-4 -4 -10 -4 -14 0l-15 14c-4 4 -4 11 0 15l32 32l-32 32c-4 4 -4 11 0 15l15 14c4 4 10 4 14 0l32 -32l32 32c4 4 11 4 15 0l15 -14c4 -4 4 -11 0 -15zM85 250h51v-51h-51v51zM153 250h50 v-51h-50v51zM220 250h51v-51h-51v51z"/>
    <glyph glyph-name="glyph34" unicode="&#57380;" d="M109 306l104 -33v120h86v-120l104 33l24 -74l-107 -32l70 -100l-64 -45l-69 94l-71 -94l-64 45l69 100l-106 32z"/>
    <glyph glyph-name="glyph35" unicode="&#57381;" d="M409 209l-135 -72v41l86 46l-86 45v42l135 -72v-30zM103 239l135 72v-42l-86 -45l86 -46v-41l-135 72v30z"/>
    <glyph glyph-name="glyph36" unicode="&#57382;" d="M85 224c0 94 77 171 171 171s171 -77 171 -171s-77 -171 -171 -171s-171 77 -171 171z"/>
    <glyph glyph-name="glyph37" unicode="&#57383;" d="M258 295v-142c0 -20 18 -26 33 -26v-30c-42 0 -66 14 -66 53v148c0 39 24 53 66 53v-30c-15 0 -33 -6 -33 -26zM394 153v142c0 20 -19 26 -34 26v30c42 0 67 -14 67 -53v-148c0 -39 -25 -53 -67 -53v30c15 0 34 6 34 26zM192 206l-48 -49c-2 -2 -4 -2 -7 -2s-5 0 -7 2 l-5 6c-2 2 -3 4 -3 7s1 4 3 6l21 22h-52c-5 0 -9 5 -9 10v9c0 5 4 10 9 10h52l-21 22c-2 2 -3 4 -3 7s1 4 3 6l5 6c2 2 4 3 7 3s5 -1 7 -3l48 -49c2 -2 3 -3 3 -6s-1 -5 -3 -7z"/>
    <glyph glyph-name="glyph38" unicode="&#57384;" d="M258 295v-142c0 -20 18 -26 33 -26v-30c-42 0 -66 14 -66 53v148c0 39 24 53 66 53v-30c-15 0 -33 -6 -33 -26zM394 153v142c0 20 -19 26 -34 26v30c42 0 67 -14 67 -53v-148c0 -39 -25 -53 -67 -53v30c15 0 34 6 34 26zM85 213c0 3 1 4 3 6l49 49c2 2 3 3 6 3s5 -1 7 -3 l6 -6c2 -2 2 -3 2 -6s0 -5 -2 -7l-22 -22h52c5 0 9 -5 9 -10v-9c0 -5 -4 -10 -9 -10h-52l22 -22c2 -2 2 -3 2 -6s0 -5 -2 -7l-6 -6c-2 -2 -4 -2 -7 -2s-4 0 -6 2l-49 49c-2 2 -3 4 -3 7z"/>
    <glyph glyph-name="glyph39" unicode="&#57385;" d="M260 293v-140c0 -20 17 -26 32 -26v-29c-41 0 -65 14 -65 52v147c0 38 24 52 65 52v-29c-15 0 -32 -7 -32 -27zM394 153v140c0 20 -18 27 -33 27v29c41 0 66 -14 66 -52v-147c0 -38 -25 -52 -66 -52v29c15 0 33 6 33 26zM197 293c0 -2 -1 -5 -3 -7l-48 -48 c-2 -2 -4 -3 -7 -3s-4 1 -6 3l-6 6c-2 2 -3 4 -3 6c0 3 1 5 3 7l22 21h-52c-5 0 -9 5 -9 10v9c0 5 4 10 9 10h52l-22 21c-2 2 -3 4 -3 7c0 2 1 5 3 7l6 5c2 2 3 3 6 3s5 -1 7 -3l48 -48c2 -2 3 -3 3 -6zM88 162l48 48c2 2 5 3 7 3c3 0 4 -1 6 -3l6 -5c2 -2 3 -4 3 -7 s-1 -5 -3 -7l-22 -22h52c5 0 9 -4 9 -9v-9c0 -5 -4 -10 -9 -10h-52l22 -22c2 -2 3 -3 3 -6s-1 -5 -3 -7l-6 -5c-2 -2 -3 -3 -6 -3c-2 0 -5 1 -7 3l-48 48c-2 2 -3 3 -3 6s1 5 3 7z"/>
    <glyph glyph-name="glyph40" unicode="&#57386;" d="M87 184c3 -8 14 -16 27 -11c5 2 10 7 12 12c22 54 88 98 162 68c28 -12 50 -31 64 -58l-24 -10c-3 -9 2 -17 7 -19l52 -21c8 -3 16 2 18 8l21 51c3 9 -2 16 -8 18l-28 -11c-17 36 -48 64 -86 80c-40 17 -88 17 -127 0s-73 -51 -90 -91c-2 -5 -2 -11 0 -16z"/>
    <glyph glyph-name="glyph41" unicode="&#57387;" d="M85 224c0 2 1 4 3 6l46 47c2 2 5 2 7 2s4 0 6 -2l5 -6c2 -2 3 -4 3 -6s-1 -5 -3 -7l-20 -20h49c5 0 9 -4 9 -9v-10c0 -5 -4 -9 -9 -9h-49l20 -20c2 -2 3 -5 3 -7s-1 -4 -3 -6l-5 -6c-2 -2 -4 -2 -6 -2s-5 0 -7 2l-46 47c-2 2 -3 4 -3 6zM427 88h-224v272h224v-272z M236 121h158v206h-158v-206z"/>
    <glyph glyph-name="glyph42" unicode="&#57389;" d="M316 182c5 12 10 31 11 46h44c12 0 17 -6 17 -16c0 -33 -15 -57 -28 -77c14 -19 32 -50 42 -75h-59c-11 0 -15 3 -20 11l-12 19c-25 -24 -50 -37 -93 -37c-67 0 -108 28 -108 93c0 53 24 75 59 93c-12 14 -21 27 -25 39s-6 23 -6 34c0 58 35 83 95 83c57 0 94 -25 94 -80 c0 -20 -5 -36 -15 -49s-23 -25 -40 -35c15 -15 30 -32 44 -49zM213 198c-17 -8 -27 -21 -27 -45c0 -25 13 -38 39 -38c20 0 38 6 49 16c-19 23 -40 47 -61 67zM208 312c0 -21 9 -31 21 -43c10 6 17 11 22 17s7 16 7 28c0 18 -7 26 -24 26c-19 0 -26 -7 -26 -28z"/>
    <glyph glyph-name="glyph43" unicode="&#57390;" d="M411 395v-251h-208l57 -56l-34 -35l-125 125l122 122l35 -34l-57 -57h145v186h65z"/>
    <glyph glyph-name="glyph44" unicode="&#57391;" d="M128 157c-37 0 -43 29 -43 67s6 67 43 67s43 -29 43 -67s-6 -67 -43 -67zM128 275c-24 0 -23 -26 -23 -51s-1 -51 23 -51s23 26 23 51s1 51 -23 51zM343 157c-37 0 -43 29 -43 67s6 67 43 67s43 -29 43 -67s-6 -67 -43 -67zM343 275c-24 0 -23 -26 -23 -51s-1 -51 23 -51 s23 26 23 51s1 51 -23 51zM201 290h20v-132h-20v132zM253 290h19v-132h-19v132zM407 290h20v-132h-20v132z"/>
    <glyph glyph-name="glyph45" unicode="&#57392;" d="M393 395c19 0 34 -15 34 -34v-274c0 -19 -15 -34 -34 -34h-20v199h-48v-199h-45v247h-48v-247h-45v124h-48v-124h-20c-19 0 -34 15 -34 34v274c0 19 15 34 34 34h274z"/>
    <glyph glyph-name="glyph46" unicode="&#57372;" d="M303 149c0 34 28 61 62 61s62 -27 62 -61s-28 -62 -62 -62s-62 28 -62 62zM147 183c-19 0 -34 -15 -34 -34s15 -35 34 -35s35 16 35 35s-16 34 -35 34zM147 210c34 0 62 -27 62 -61s-28 -62 -62 -62s-62 28 -62 62s28 61 62 61zM260 361c54 1 94 -31 112 -68l20 8 c4 -2 9 -7 6 -13l-16 -38c-2 -4 -7 -8 -13 -5l-38 15c-4 2 -8 7 -5 13l14 7c-14 28 -41 50 -80 51c-39 -1 -66 -23 -80 -51l14 -7c3 -6 -1 -11 -5 -13l-38 -15c-6 -3 -12 1 -14 5l-15 38c-3 6 1 11 5 13l21 -8c18 37 57 69 111 68h1v0z"/>
    <glyph glyph-name="glyph47" unicode="&#57378;" d="M220 320c4 0 8 -1 11 -4l81 -81c3 -3 5 -7 5 -11s-2 -8 -5 -11l-81 -81c-3 -3 -7 -4 -11 -4s-8 1 -11 4l-9 9c-3 3 -5 8 -5 12s2 8 5 11l60 60l-60 60c-3 3 -5 7 -5 11s2 9 5 12l9 9c3 3 7 4 11 4z"/>
    <glyph glyph-name="glyph48" unicode="&#57388;" d="M358 260c0 -4 -1 -8 -4 -11l-81 -81c-3 -3 -7 -5 -11 -5s-8 2 -11 5l-81 81c-3 3 -5 7 -5 11s2 8 5 11l9 9c3 3 7 5 11 5s8 -2 11 -5l61 -60l60 60c3 3 7 5 11 5s8 -2 11 -5l10 -9c3 -3 4 -7 4 -11z"/>
    <glyph glyph-name="glyph49" unicode="&#57393;" d="M292 320c4 0 8 -1 11 -4l9 -9c3 -3 5 -8 5 -12s-2 -8 -5 -11l-60 -60l60 -60c3 -3 5 -7 5 -11s-2 -9 -5 -12l-9 -9c-3 -3 -7 -4 -11 -4s-8 1 -11 4l-81 81c-3 3 -5 7 -5 11s2 8 5 11l81 81c3 3 7 4 11 4z"/>
    <glyph glyph-name="glyph50" unicode="&#57394;" d="M175 373c0 11 10 22 21 22c6 0 11 -3 15 -7l150 -149c4 -4 6 -9 6 -15s-2 -11 -6 -15l-150 -149c-4 -4 -9 -7 -15 -7c-11 0 -21 11 -21 22v298z"/>
    <glyph glyph-name="glyph51" unicode="&#57395;" d="M405 320c11 0 22 -10 22 -21c0 -6 -3 -11 -7 -15l-149 -150c-4 -4 -9 -6 -15 -6s-11 2 -15 6l-149 150c-4 4 -7 9 -7 15c0 11 11 21 22 21h298z"/>
    <glyph glyph-name="glyph52" unicode="&#57396;" d="M436 209c0 -11 -9 -22 -22 -22c-6 0 -12 2 -16 6l-49 49l-183 -182c-9 -9 -21 -9 -30 0l-35 35c-9 9 -9 21 0 30l182 183l-49 49c-15 14 -2 38 16 38h164c12 0 22 -10 22 -22v-164z"/>
    <glyph glyph-name="glyph53" unicode="&#57397;" d="M420 289c-63 -63 -126 -127 -189 -190c-4 -4 -9 -6 -15 -6s-11 2 -15 6c-37 37 -72 73 -109 110c-4 4 -7 10 -7 15c0 6 2 11 6 15l30 30c4 4 9 6 15 6c5 0 11 -2 15 -6l65 -65l145 145c4 4 10 6 15 6c6 0 11 -2 15 -6l29 -30c4 -4 7 -9 7 -15c0 -5 -3 -11 -7 -15z"/>
    <glyph glyph-name="glyph54" unicode="&#57398;" d="M209 379c0 8 8 16 16 16h62c8 0 16 -8 16 -16v-46c0 -8 -8 -16 -16 -16h-62c-8 0 -16 8 -16 16v46zM334 69c0 -8 -8 -16 -16 -16h-124c-8 0 -16 8 -16 16v31c0 8 8 15 16 15h15v93h-15c-8 0 -16 8 -16 16v31c0 8 8 16 16 16h93c8 0 16 -8 16 -16v-140h15 c8 0 16 -7 16 -15v-31z"/>
    <glyph glyph-name="glyph55" unicode="&#57399;" d="M292 63c0 -5 -5 -10 -10 -10h-59c-5 0 -10 5 -10 10v59c0 5 5 10 10 10h59c5 0 10 -5 10 -10v-59zM314 220c-14 -8 -23 -26 -23 -33c0 -5 -4 -11 -10 -11h-59c-5 0 -8 8 -8 13v11c0 30 28 55 50 65c19 9 27 16 27 32c0 14 -18 26 -38 26c-11 0 -21 -3 -26 -7 c-6 -4 -12 -10 -26 -28c-2 -2 -5 -4 -8 -4c-2 0 -4 1 -6 2l-40 31c-4 3 -5 9 -2 13c26 44 63 65 113 65c52 0 111 -42 111 -98c0 -46 -32 -64 -55 -77z"/>
  </font>
</defs>
</svg>
